<?xml version="1.0" encoding="utf-8"?>
<!-- Generator: Adobe Illustrator 23.0.4, SVG Export Plug-In . SVG Version: 6.00 Build 0)  -->
<svg version="1.1" id="Layer_1" xmlns="http://www.w3.org/2000/svg" xmlns:xlink="http://www.w3.org/1999/xlink" x="0px" y="0px"
	 viewBox="0 0 1000 1000" style="enable-background:new 0 0 1000 1000;" xml:space="preserve">
<style type="text/css">
	.st0{fill:url(#SVGID_1_);}
	.st1{fill:#5DA7BC;}
	.st2{fill:#FFFFFF;}
	.st3{fill:url(#SVGID_2_);}
	.st4{fill:#5DA9BE;}
	.st5{fill:#292F7E;}
</style>
<g>
	<path d="M841.51,434.05H418.94c-4.22,0-8.37,0.2-12.44,0.59c-4.25,0.4-8.45-1.2-11.47-4.29l-76.33-78
		c-23.31-23.82-61.11-23.82-84.42,0l-99.28,101.45c-23.31,23.82-23.31,62.45,0,86.27L244.53,652c17.64,18.03,46.25,18.03,63.9,0
		l75.07-76.71c3.25-3.32,7.84-4.86,12.39-4.18c5.92,0.89,12.05,1.36,18.33,1.36h233.42c8.02,0,14.51,6.64,14.51,14.83v54.95
		c0,8.19,6.5,14.83,14.51,14.83h133.98c8.02,0,14.51-6.64,14.51-14.83V587.3c0-8.19,6.5-14.83,14.51-14.83h0.95
		c19.64,0,39.69-4.68,40.96-28.71l0.77-72.35C884.05,450.54,868.25,434.05,841.51,434.05z"/>
	<linearGradient id="SVGID_1_" gradientUnits="userSpaceOnUse" x1="500.9727" y1="434.9494" x2="499.0769" y2="548.6968">
		<stop  offset="0" style="stop-color:#2C3780"/>
		<stop  offset="0.2274" style="stop-color:#2D3981;stop-opacity:0.9087"/>
		<stop  offset="0.3093" style="stop-color:#2F4087;stop-opacity:0.8759"/>
		<stop  offset="0.3677" style="stop-color:#344B90;stop-opacity:0.8524"/>
		<stop  offset="0.4149" style="stop-color:#3B5C9D;stop-opacity:0.8335"/>
		<stop  offset="0.4553" style="stop-color:#4472AD;stop-opacity:0.8173"/>
		<stop  offset="0.4905" style="stop-color:#4E8DC2;stop-opacity:0.8031"/>
		<stop  offset="0.4983" style="stop-color:#5194C7;stop-opacity:0.8"/>
		<stop  offset="0.5083" style="stop-color:#4E8BC0;stop-opacity:0.804"/>
		<stop  offset="0.5436" style="stop-color:#4370AC;stop-opacity:0.818"/>
		<stop  offset="0.5841" style="stop-color:#3B5A9C;stop-opacity:0.8342"/>
		<stop  offset="0.6314" style="stop-color:#35498F;stop-opacity:0.853"/>
		<stop  offset="0.6899" style="stop-color:#303E86;stop-opacity:0.8764"/>
		<stop  offset="0.772" style="stop-color:#2E3781;stop-opacity:0.9091"/>
		<stop  offset="1" style="stop-color:#2D3580"/>
	</linearGradient>
	<path class="st0" d="M841.51,434.05H418.94c-4.22,0-8.37,0.2-12.44,0.59c-4.25,0.4-8.45-1.2-11.47-4.29l-76.33-78
		c-23.31-23.82-61.11-23.82-84.42,0l-99.28,101.45c-23.31,23.82-23.31,62.45,0,86.27L244.53,652c17.64,18.03,46.25,18.03,63.9,0
		l75.07-76.71c3.25-3.32,7.84-4.86,12.39-4.18c5.92,0.89,12.05,1.36,18.33,1.36h233.42c8.02,0,14.51,6.64,14.51,14.83v54.95
		c0,8.19,6.5,14.83,14.51,14.83h133.98c8.02,0,14.51-6.64,14.51-14.83V587.3c0-8.19,6.5-14.83,14.51-14.83h0.95
		c19.64,0,39.69-4.68,40.96-28.71l0.77-72.35C884.05,450.54,868.25,434.05,841.51,434.05z"/>
	<polygon class="st4" points="195.62,496.08 264.5,425.7 264.5,448.52 217.96,496.08 264.5,543.64 264.5,566.46 	"/>
	<polygon class="st4" points="283.27,543.64 329.81,496.08 283.27,448.52 283.27,425.7 352.15,496.08 283.27,566.46 	"/>
	<polygon class="st2" points="274.23,388.75 229.51,435.69 219.79,426.11 274.23,368.35 328.68,426.11 318.96,435.69 	"/>
	<polygon class="st2" points="342.22,436.11 279.2,500.51 279.2,523.74 342.23,459.33 377.97,495.84 279.2,596.77 278.93,597.08 
		275.54,600.78 228.79,555.44 228.79,555.44 170.47,495.84 206.2,459.33 269.24,523.74 269.24,500.51 206.22,436.11 147.76,495.84 
		217.68,567.31 217.68,567.31 274.81,625.97 330.6,567.46 400.67,495.84 	"/>
	<path class="st4" d="M795.58,619.36c0,3.56-0.88,6.72-2.65,9.48c-1.77,2.76-4.31,4.9-7.64,6.43s-7.23,2.3-11.71,2.3
		c-3.74,0-6.87-0.27-9.41-0.8c-2.53-0.54-5.17-1.47-7.91-2.81v-12.73l9.02,2.47c3.12,0.85,5.99,1.28,8.6,1.28
		c2.25,0,3.9-0.4,4.95-1.2c1.05-0.8,1.57-1.82,1.57-3.08c0-0.78-0.21-1.47-0.63-2.06c-0.42-0.59-1.1-1.18-2.04-1.79
		c-0.93-0.6-3.42-1.83-7.47-3.69c-3.66-1.7-6.41-3.35-8.24-4.94c-1.83-1.6-3.19-3.43-4.07-5.49c-0.88-2.07-1.32-4.51-1.32-7.34
		c0-5.28,1.88-9.4,5.64-12.36c3.76-2.96,8.93-4.43,15.51-4.43c1.27,0,2.54,0.07,3.82,0.2c7.47,0.76,12.08,8.76,9.31,15.89v0
		c-5.25-2.46-9.78-3.69-13.59-3.69c-1.97,0-3.4,0.35-4.3,1.06c-0.9,0.71-1.34,1.58-1.34,2.63c0,1.12,0.57,2.13,1.71,3.02
		c1.14,0.89,4.23,2.51,9.27,4.87c4.84,2.22,8.2,4.61,10.08,7.16C794.64,612.28,795.58,615.49,795.58,619.36z"/>
	<path class="st4" d="M748.32,579.58v34.53c0,7.51-2.09,13.31-6.25,17.44c-3.4,3.37-8.04,5.36-13.91,5.97V624.2
		c1.2-0.45,2.17-1.15,2.91-2.11c1.39-1.82,2.09-4.79,2.09-8.93v-33.58H748.32z"/>
	<path class="st4" d="M720.44,624.12v13.45c-5.9-0.55-10.57-2.49-14-5.84c-4.11-4-6.16-9.75-6.16-17.27v-28.35
		c0-3.6,2.86-6.53,6.39-6.53h8.85v33.66c0,4.06,0.74,7,2.23,8.84C718.48,622.98,719.37,623.66,720.44,624.12z"/>
	<polygon class="st5" points="645.79,530.43 647.9,538.49 668.38,538.49 665.41,530.43 	"/>
	<polygon class="st2" points="651.09,527.73 653.2,535.79 673.68,535.79 670.71,527.73 	"/>
	<g>
		<path class="st5" d="M711.86,496.07c-6.23-2.91-10.04-4.91-11.45-6.01c-1.41-1.1-2.11-2.34-2.11-3.73c0-1.29,0.55-2.37,1.66-3.25
			s2.88-1.31,5.31-1.31c4.71,0,10.3,1.52,16.78,4.55l0,0c3.42-8.81-2.27-18.67-11.49-19.62c-1.58-0.16-3.15-0.24-4.72-0.24
			c-8.12,0-14.51,1.82-19.15,5.47c-4.65,3.65-6.97,8.74-6.97,15.26c0,3.49,0.55,6.51,1.64,9.06c1.09,2.55,2.77,4.81,5.03,6.78
			c2.26,1.97,5.65,4,10.17,6.1c4.99,2.29,8.07,3.81,9.22,4.55c1.15,0.74,1.99,1.48,2.51,2.2c0.52,0.73,0.78,1.57,0.78,2.54
			c0,1.55-0.65,2.82-1.94,3.8c-1.3,0.99-3.33,1.48-6.12,1.48c-3.22,0-6.76-0.52-10.62-1.57l-11.14-3.04v15.71
			c3.38,1.65,6.64,2.8,9.77,3.46c3.13,0.66,7,0.99,11.61,0.99c5.53,0,10.35-0.94,14.46-2.83c4.11-1.89,7.25-4.54,9.43-7.94
			c2.18-3.41,3.27-7.31,3.27-11.7c0-4.78-1.16-8.74-3.48-11.89C721.98,501.77,717.83,498.82,711.86,496.07z"/>
		<path class="st5" d="M470.43,481.71v2.4h16.92v55.17h18.73v-70.82H483.4C476.24,468.46,470.43,474.39,470.43,481.71z"/>
		<rect x="511.48" y="468.46" class="st5" width="15.52" height="15.65"/>
		<path class="st5" d="M671.81,526l-5.06-15.68l-13.56-42.15H628.2l-6.04,19.01c-0.31,0.98-0.65,1.98-0.98,3.06l-0.7,2.2
			l-5.68,17.87h-1.75c-4.18,0-7.92,2.7-9.3,6.74l-3.07,8.96h9.14l-3.68,11.56l0,0l-0.54,1.71h20.58l3.51-13.27h42.14V526z
			 M633.56,510.32c2.87-11.12,4.73-18.56,5.57-22.33c0.84-3.78,1.4-6.49,1.69-8.14c0.31,1.78,0.97,4.73,1.97,8.82
			c1,4.11,1.85,7.44,2.53,10.03l2.99,11.63H633.56z"/>
		<path class="st5" d="M426.12,489.14c0.28-0.03,0.58-0.04,0.86-0.04h17.87v-5.28h22.42v-15.36h-41.15V489.14z"/>
		<path class="st5" d="M444.85,510.31l-9.32-0.01h26.04v-15.69h-34.59c-0.28,0-0.58,0.01-0.86,0.04c-3.83,0.34-7.15,2.93-8.44,6.7
			l-3.07,8.96h11.52v14.48v14.49h41.15v-15.6h-22.42V510.31z"/>
		<rect x="738.91" y="514.6" class="st5" width="18.81" height="24.68"/>
		<polygon class="st5" points="757.72,468.46 738.91,468.46 738.91,490.66 757.72,490.59 		"/>
		<path class="st5" d="M779.48,468.46v26.26H739.2c-0.09,0-0.2,0-0.3,0.01c-4.44,0.15-7.97,3.86-7.97,8.42v7.32h26.78h7.25v-0.05
			h14.51v17.48v11.38h18.82v-70.82H779.48z"/>
		<rect x="538.12" y="514.6" class="st5" width="18.81" height="24.68"/>
		<polygon class="st5" points="556.93,468.46 538.12,468.46 538.12,490.66 556.93,490.59 		"/>
		<path class="st5" d="M578.69,494.72h-40.28c-0.09,0-0.2,0-0.3,0.01c-4.44,0.15-7.97,3.86-7.97,8.42v7.32h26.78h7.25v-0.05h14.51
			v17.48v11.38h18.82v-70.82h-18.82V494.72z"/>
		<path class="st2" d="M717.15,493.37c-6.23-2.91-10.04-4.91-11.45-6.01c-1.41-1.1-2.11-2.34-2.11-3.73c0-1.29,0.55-2.37,1.66-3.25
			c1.11-0.87,2.88-1.31,5.31-1.31c4.71,0,10.3,1.52,16.78,4.55l0,0c3.42-8.81-2.27-18.67-11.49-19.62
			c-1.58-0.16-3.15-0.24-4.72-0.24c-8.12,0-14.51,1.82-19.15,5.47c-4.65,3.65-6.97,8.74-6.97,15.26c0,3.49,0.55,6.51,1.64,9.06
			c1.09,2.55,2.77,4.81,5.03,6.78c2.26,1.97,5.65,4,10.17,6.1c4.99,2.29,8.07,3.81,9.22,4.55c1.15,0.74,1.99,1.48,2.51,2.2
			c0.52,0.73,0.78,1.57,0.78,2.54c0,1.55-0.65,2.82-1.94,3.8c-1.3,0.99-3.33,1.48-6.12,1.48c-3.22,0-6.76-0.52-10.62-1.57
			l-11.14-3.04v15.71c3.38,1.65,6.64,2.8,9.77,3.46c3.13,0.66,7,0.99,11.61,0.99c5.53,0,10.35-0.94,14.46-2.83
			c4.11-1.89,7.25-4.54,9.43-7.94c2.18-3.41,3.27-7.31,3.27-11.7c0-4.78-1.16-8.74-3.48-11.89
			C727.27,499.06,723.13,496.11,717.15,493.37z"/>
		<path class="st2" d="M475.73,479.01v2.4h16.92v55.17h18.73v-70.82H488.7C481.54,465.75,475.73,471.69,475.73,479.01z"/>
		<rect x="516.77" y="465.75" class="st2" width="15.52" height="15.65"/>
		<path class="st2" d="M677.11,523.29l-5.06-15.68l-13.56-42.15H633.5l-6.04,19.01c-0.31,0.98-0.65,1.98-0.98,3.06l-0.7,2.2
			l-5.68,17.87h-1.75c-4.18,0-7.92,2.7-9.3,6.74l-3.07,8.96h9.14l-3.68,11.56l0,0l-0.54,1.71h20.58l3.51-13.27h42.14V523.29z
			 M638.86,507.61c2.87-11.12,4.73-18.56,5.57-22.33c0.84-3.78,1.4-6.49,1.69-8.14c0.31,1.78,0.97,4.73,1.97,8.82
			c1,4.11,1.85,7.44,2.53,10.03l2.99,11.63H638.86z"/>
		<path class="st2" d="M431.42,486.44c0.28-0.03,0.58-0.04,0.86-0.04h17.87v-5.28h22.42v-15.36h-41.15V486.44z"/>
		<path class="st2" d="M450.15,507.61l-9.32-0.01h26.04v-15.69h-34.59c-0.28,0-0.58,0.01-0.86,0.04c-3.83,0.34-7.15,2.93-8.44,6.7
			l-3.07,8.96h11.52v14.48v14.49h41.15v-15.6h-22.42V507.61z"/>
		<rect x="744.2" y="511.9" class="st2" width="18.81" height="24.68"/>
		<polygon class="st2" points="763.01,465.75 744.2,465.75 744.2,487.95 763.01,487.88 		"/>
		<path class="st2" d="M784.78,465.75v26.26H744.5c-0.09,0-0.2,0-0.3,0.01c-4.44,0.15-7.97,3.86-7.97,8.42v7.32h26.78h7.25v-0.05
			h14.51v17.48v11.38h18.82v-70.82H784.78z"/>
		<rect x="543.42" y="511.9" class="st2" width="18.81" height="24.68"/>
		<polygon class="st2" points="562.23,465.75 543.42,465.75 543.42,487.95 562.23,487.88 		"/>
		<path class="st2" d="M583.99,492.02h-40.28c-0.09,0-0.2,0-0.3,0.01c-4.44,0.15-7.97,3.86-7.97,8.42v7.32h26.78h7.25v-0.05h14.51
			v17.48v11.38h18.82v-70.82h-18.82V492.02z"/>
	</g>
</g>
</svg>
